HIERARCHY
ROOT newVegas:Hips
{
	OFFSET 0.000000 96.479958 0.000000
	CHANNELS 6 Xposition Yposition Zposition Xrotation Yrotation Zrotation
	JOINT newVegas:Pelvis
	{
		OFFSET 0.000000 0.000000 0.000000
		CHANNELS 3 Xrotation Yrotation Zrotation
		JOINT newVegas:LeftUpLeg
		{
			OFFSET 18.735201 -5.666702 -4.541200
			CHANNELS 3 Xrotation Yrotation Zrotation
			JOINT newVegas:LeftLeg
			{
				OFFSET -0.021200 -31.938179 0.493100
				CHANNELS 3 Xrotation Yrotation Zrotation
				JOINT newVegas:LeftFoot
				{
					OFFSET 0.021200 -31.938179 -4.336299
					CHANNELS 3 Xrotation Yrotation Zrotation
					JOINT newVegas:LeftToeBase
					{
						OFFSET 0.943001 -26.722000 15.023500
						CHANNELS 3 Xrotation Yrotation Zrotation
						End Site
						{
							OFFSET 0.000000 30.670183 0.000000
						}
					}
				}
				JOINT newVegas:Left_PantLeg
				{
					OFFSET 0.663870 -9.044666 -1.108900
					CHANNELS 3 Xrotation Yrotation Zrotation
					End Site
					{
						OFFSET 1.415995 20.635357 0.000000
					}
				}
			}
		}
		JOINT newVegas:RightUpLeg
		{
			OFFSET -18.735201 -5.666702 -4.541200
			CHANNELS 3 Xrotation Yrotation Zrotation
			JOINT newVegas:RightLeg
			{
				OFFSET 0.018946 -31.938133 0.493100
				CHANNELS 3 Xrotation Yrotation Zrotation
				JOINT newVegas:RightFoot
				{
					OFFSET -0.018946 -31.938126 -4.336299
					CHANNELS 3 Xrotation Yrotation Zrotation
					JOINT newVegas:RightToeBase
					{
						OFFSET -0.943001 -26.722004 15.023500
						CHANNELS 3 Xrotation Yrotation Zrotation
						End Site
						{
							OFFSET 0.000000 30.670187 0.000000
						}
					}
				}
				JOINT newVegas:Right_PantLeg
				{
					OFFSET -0.661674 -9.044716 -1.108900
					CHANNELS 3 Xrotation Yrotation Zrotation
					End Site
					{
						OFFSET -1.415958 20.635269 0.000000
					}
				}
			}
		}
	}
	JOINT newVegas:Spine
	{
		OFFSET 0.000000 10.199997 -0.299500
		CHANNELS 3 Xrotation Yrotation Zrotation
		JOINT newVegas:Spine1
		{
			OFFSET 0.000000 11.900002 -1.516600
			CHANNELS 3 Xrotation Yrotation Zrotation
			JOINT newVegas:Spine2
			{
				OFFSET 0.000000 13.600006 -2.842500
				CHANNELS 3 Xrotation Yrotation Zrotation
				JOINT newVegas:Neck
				{
					OFFSET 0.000000 9.624100 -2.890100
					CHANNELS 3 Xrotation Yrotation Zrotation
					JOINT newVegas:Head
					{
						OFFSET 0.000000 14.068802 -1.351900
						CHANNELS 3 Xrotation Yrotation Zrotation
						JOINT newVegas:Hair_Back
						{
							OFFSET 0.000000 3.231903 -17.524799
							CHANNELS 3 Xrotation Yrotation Zrotation
							End Site
							{
								OFFSET 0.000000 19.849884 0.000000
							}
						}
						JOINT newVegas:Hair_Front
						{
							OFFSET 0.000000 31.260406 4.573800
							CHANNELS 3 Xrotation Yrotation Zrotation
							JOINT newVegas:Hair_Front1
							{
								OFFSET 0.000000 2.284103 11.993300
								CHANNELS 3 Xrotation Yrotation Zrotation
								JOINT newVegas:Hair_Front2
								{
									OFFSET 0.000000 2.284103 11.993300
									CHANNELS 3 Xrotation Yrotation Zrotation
									End Site
									{
										OFFSET 0.000000 12.208862 0.000000
									}
								}
							}
						}
						JOINT newVegas:Jowel
						{
							OFFSET 0.000000 -7.458206 6.864100
							CHANNELS 3 Xrotation Yrotation Zrotation
							End Site
							{
								OFFSET 0.000000 19.849884 0.000000
							}
						}
					}
				}
				JOINT newVegas:LeftShoulder
				{
					OFFSET 15.263000 10.923401 -0.547700
					CHANNELS 3 Xrotation Yrotation Zrotation
					JOINT newVegas:LeftArm
					{
						OFFSET 25.438599 -2.830597 -13.032500
						CHANNELS 3 Xrotation Yrotation Zrotation
						JOINT newVegas:LeftForeArm
						{
							OFFSET 29.960503 0.000000 0.000000
							CHANNELS 3 Xrotation Yrotation Zrotation
							JOINT newVegas:LeftHand
							{
								OFFSET 27.849251 0.000000 0.000000
								CHANNELS 3 Xrotation Yrotation Zrotation
								JOINT newVegas:LeftHandThumb1
								{
									OFFSET 4.487587 -3.305161 6.305391
									CHANNELS 3 Xrotation Yrotation Zrotation
									JOINT newVegas:LeftHandThumb2
									{
										OFFSET 5.480453 -3.164139 3.164143
										CHANNELS 3 Xrotation Yrotation Zrotation
										JOINT newVegas:LeftHandThumb3
										{
											OFFSET 5.159721 -2.978973 2.978967
											CHANNELS 3 Xrotation Yrotation Zrotation
											End Site
											{
												OFFSET 2.494507 5.926697 1.738678
											}
										}
									}
								}
								JOINT newVegas:LeftHandIndex1
								{
									OFFSET 18.578728 -0.527832 5.208049
									CHANNELS 3 Xrotation Yrotation Zrotation
									JOINT newVegas:LeftHandIndex2
									{
										OFFSET 3.192009 0.000000 0.000000
										CHANNELS 3 Xrotation Yrotation Zrotation
										JOINT newVegas:LeftHandIndex3
										{
											OFFSET 3.835129 0.000000 0.000000
											CHANNELS 3 Xrotation Yrotation Zrotation
											End Site
											{
												OFFSET -0.034599 3.816971 0.371180
											}
										}
									}
								}
								JOINT newVegas:LeftHandMiddle1
								{
									OFFSET 18.476105 0.000000 0.000000
									CHANNELS 3 Xrotation Yrotation Zrotation
									JOINT newVegas:LeftHandMiddle2
									{
										OFFSET 3.324875 0.000000 0.000000
										CHANNELS 3 Xrotation Yrotation Zrotation
										JOINT newVegas:LeftHandMiddle3
										{
											OFFSET 4.596550 0.000000 0.000000
											CHANNELS 3 Xrotation Yrotation Zrotation
											End Site
											{
												OFFSET 0.057701 4.578827 0.399218
											}
										}
									}
								}
								JOINT newVegas:LeftHandRing1
								{
									OFFSET 17.732719 0.121887 -4.201567
									CHANNELS 3 Xrotation Yrotation Zrotation
									JOINT newVegas:LeftHandRing2
									{
										OFFSET 2.733170 0.000000 0.000000
										CHANNELS 3 Xrotation Yrotation Zrotation
										JOINT newVegas:LeftHandRing3
										{
											OFFSET 3.178268 0.000000 0.000000
											CHANNELS 3 Xrotation Yrotation Zrotation
											End Site
											{
												OFFSET 0.119102 3.170624 0.185394
											}
										}
									}
								}
								JOINT newVegas:LeftHandPinky1
								{
									OFFSET 15.989624 -0.606689 -7.535461
									CHANNELS 3 Xrotation Yrotation Zrotation
									JOINT newVegas:LeftHandPinky2
									{
										OFFSET 2.538986 0.000000 0.000000
										CHANNELS 3 Xrotation Yrotation Zrotation
										JOINT newVegas:LeftHandPinky3
										{
											OFFSET 2.593102 0.000000 0.000000
											CHANNELS 3 Xrotation Yrotation Zrotation
											End Site
											{
												OFFSET -0.150902 2.584198 0.152708
											}
										}
									}
								}
							}
							JOINT newVegas:Left_Sleeve
							{
								OFFSET 0.267448 -0.649796 0.577675
								CHANNELS 3 Xrotation Yrotation Zrotation
								End Site
								{
									OFFSET 0.000000 15.991241 0.000000
								}
							}
							JOINT newVegas:Left_CapeC
							{
								OFFSET 15.715958 -8.608795 -6.935905
								CHANNELS 3 Xrotation Yrotation Zrotation
								JOINT newVegas:Left_CapeC1
								{
									OFFSET 0.000000 -8.688499 0.000000
									CHANNELS 3 Xrotation Yrotation Zrotation
									End Site
									{
										OFFSET 0.000000 8.688499 0.000000
									}
								}
							}
						}
						JOINT newVegas:Left_CapeB
						{
							OFFSET 26.118385 -8.608795 -7.079235
							CHANNELS 3 Xrotation Yrotation Zrotation
							JOINT newVegas:Left_CapeB1
							{
								OFFSET 0.000000 -8.688499 0.000000
								CHANNELS 3 Xrotation Yrotation Zrotation
								End Site
								{
									OFFSET 0.000000 8.688499 0.000000
								}
							}
						}
						JOINT newVegas:Left_CapeA
						{
							OFFSET 5.115639 -8.608795 -10.395809
							CHANNELS 3 Xrotation Yrotation Zrotation
							JOINT newVegas:Left_CapeA1
							{
								OFFSET 0.000000 -8.688499 0.000000
								CHANNELS 3 Xrotation Yrotation Zrotation
								End Site
								{
									OFFSET 0.000000 8.688499 0.000000
								}
							}
						}
					}
				}
				JOINT newVegas:RightShoulder
				{
					OFFSET -15.263000 10.923401 -0.547700
					CHANNELS 3 Xrotation Yrotation Zrotation
					JOINT newVegas:RightArm
					{
						OFFSET -25.438599 -2.830597 -13.032500
						CHANNELS 3 Xrotation Yrotation Zrotation
						JOINT newVegas:RightForeArm
						{
							OFFSET -29.960503 0.000000 0.000000
							CHANNELS 3 Xrotation Yrotation Zrotation
							JOINT newVegas:RightHand
							{
								OFFSET -27.849251 0.000000 0.000000
								CHANNELS 3 Xrotation Yrotation Zrotation
								JOINT newVegas:RightHandThumb1
								{
									OFFSET -4.487587 -3.305161 6.305391
									CHANNELS 3 Xrotation Yrotation Zrotation
									JOINT newVegas:RightHandThumb2
									{
										OFFSET -5.480453 -3.164139 3.164143
										CHANNELS 3 Xrotation Yrotation Zrotation
										JOINT newVegas:RightHandThumb3
										{
											OFFSET -5.159721 -2.978973 2.978967
											CHANNELS 3 Xrotation Yrotation Zrotation
											End Site
											{
												OFFSET -2.494507 5.926697 1.738678
											}
										}
									}
								}
								JOINT newVegas:RightHandIndex1
								{
									OFFSET -18.578728 -0.527832 5.208049
									CHANNELS 3 Xrotation Yrotation Zrotation
									JOINT newVegas:RightHandIndex2
									{
										OFFSET -3.192009 0.000000 0.000000
										CHANNELS 3 Xrotation Yrotation Zrotation
										JOINT newVegas:RightHandIndex3
										{
											OFFSET -3.835129 0.000000 0.000000
											CHANNELS 3 Xrotation Yrotation Zrotation
											End Site
											{
												OFFSET 0.034599 3.816971 0.371180
											}
										}
									}
								}
								JOINT newVegas:RightHandMiddle1
								{
									OFFSET -18.476105 0.000000 0.000000
									CHANNELS 3 Xrotation Yrotation Zrotation
									JOINT newVegas:RightHandMiddle2
									{
										OFFSET -3.324875 0.000000 0.000000
										CHANNELS 3 Xrotation Yrotation Zrotation
										JOINT newVegas:RightHandMiddle3
										{
											OFFSET -4.596550 0.000000 0.000000
											CHANNELS 3 Xrotation Yrotation Zrotation
											End Site
											{
												OFFSET -0.057701 4.578827 0.399218
											}
										}
									}
								}
								JOINT newVegas:RightHandRing1
								{
									OFFSET -17.732719 0.121887 -4.201567
									CHANNELS 3 Xrotation Yrotation Zrotation
									JOINT newVegas:RightHandRing2
									{
										OFFSET -2.733170 0.000000 0.000000
										CHANNELS 3 Xrotation Yrotation Zrotation
										JOINT newVegas:RightHandRing3
										{
											OFFSET -3.178268 0.000000 0.000000
											CHANNELS 3 Xrotation Yrotation Zrotation
											End Site
											{
												OFFSET -0.119102 3.170624 0.185394
											}
										}
									}
								}
								JOINT newVegas:RightHandPinky1
								{
									OFFSET -15.989624 -0.606689 -7.535461
									CHANNELS 3 Xrotation Yrotation Zrotation
									JOINT newVegas:RightHandPinky2
									{
										OFFSET -2.538986 0.000000 0.000000
										CHANNELS 3 Xrotation Yrotation Zrotation
										JOINT newVegas:RightHandPinky3
										{
											OFFSET -2.593102 0.000000 0.000000
											CHANNELS 3 Xrotation Yrotation Zrotation
											End Site
											{
												OFFSET 0.150902 2.584198 0.152708
											}
										}
									}
								}
							}
							JOINT newVegas:Right_CapeC
							{
								OFFSET -15.715958 -8.608795 -6.935905
								CHANNELS 3 Xrotation Yrotation Zrotation
								JOINT newVegas:Right_CapeC1
								{
									OFFSET 0.000000 -8.688499 0.000000
									CHANNELS 3 Xrotation Yrotation Zrotation
									End Site
									{
										OFFSET 0.000000 8.688499 0.000000
									}
								}
							}
							JOINT newVegas:Right_Sleeve
							{
								OFFSET -0.267448 -0.649994 0.577675
								CHANNELS 3 Xrotation Yrotation Zrotation
								End Site
								{
									OFFSET 0.000000 15.991302 0.000000
								}
							}
						}
						JOINT newVegas:Right_CapeA
						{
							OFFSET -5.115540 -8.608795 -10.395824
							CHANNELS 3 Xrotation Yrotation Zrotation
							JOINT newVegas:Right_CapeA1
							{
								OFFSET 0.000000 -8.688499 0.000000
								CHANNELS 3 Xrotation Yrotation Zrotation
								End Site
								{
									OFFSET 0.000000 8.688499 0.000000
								}
							}
						}
						JOINT newVegas:Right_CapeB
						{
							OFFSET -26.118187 -8.608795 -7.079266
							CHANNELS 3 Xrotation Yrotation Zrotation
							JOINT newVegas:Right_CapeB1
							{
								OFFSET 0.000000 -8.688499 0.000000
								CHANNELS 3 Xrotation Yrotation Zrotation
								End Site
								{
									OFFSET 0.000000 8.688499 0.000000
								}
							}
						}
					}
				}
				JOINT newVegas:Left_Collar
				{
					OFFSET 18.625099 8.655502 8.828100
					CHANNELS 3 Xrotation Yrotation Zrotation
					JOINT newVegas:Left_Collar1
					{
						OFFSET 14.783401 10.540405 -1.259500
						CHANNELS 3 Xrotation Yrotation Zrotation
						End Site
						{
							OFFSET 0.000000 18.199875 0.000000
						}
					}
				}
				JOINT newVegas:Collar_Back
				{
					OFFSET 0.000000 15.630707 -20.132601
					CHANNELS 3 Xrotation Yrotation Zrotation
					End Site
					{
						OFFSET 0.000000 22.523010 0.000000
					}
				}
				JOINT newVegas:Left_Peck
				{
					OFFSET 17.239599 -5.132599 25.482599
					CHANNELS 3 Xrotation Yrotation Zrotation
					End Site
					{
						OFFSET 0.000000 22.523010 0.000000
					}
				}
				JOINT newVegas:Right_Peck
				{
					OFFSET -17.239599 -5.132202 25.482599
					CHANNELS 3 Xrotation Yrotation Zrotation
					End Site
					{
						OFFSET 0.000000 22.523010 0.000000
					}
				}
				JOINT newVegas:Right_Collar
				{
					OFFSET -18.625099 8.655792 8.828100
					CHANNELS 3 Xrotation Yrotation Zrotation
					JOINT newVegas:Right_Collar1
					{
						OFFSET -14.783401 10.539993 -1.259500
						CHANNELS 3 Xrotation Yrotation Zrotation
						End Site
						{
							OFFSET 0.000000 18.199631 0.000000
						}
					}
				}
			}
		}
		JOINT newVegas:Belly
		{
			OFFSET 0.000000 -6.540398 9.014299
			CHANNELS 3 Xrotation Yrotation Zrotation
			End Site
			{
				OFFSET 0.000000 11.566666 0.000000
			}
		}
	}
	JOINT newVegas:ElvisFacialAnim_Joint
	{
		OFFSET 1.000000 -95.330101 -8.825800
		CHANNELS 3 Xrotation Yrotation Zrotation
		End Site
		{
			OFFSET 0.000000 35.315800 0.000000
		}
	}
}
MOTION
Frames: 4
Frame Time: 0.033333
0.049007 95.261047 4.396915 -3.753863 -5.231599 -3.174701 -0.000000 0.000001 0.000000 -14.964074 13.503455 12.520528 20.413456 1.789291 4.640034 -2.577847 1.111144 -9.507124 0.000000 0.000000 0.000000 0.000000 -0.000001 0.000000 4.366957 -10.110464 2.838548 4.869594 -9.673548 -3.267162 -4.784017 -1.880445 4.146702 0.000000 -0.000000 0.000000 0.000000 0.000001 -0.000000 3.312568 1.522293 2.147362 1.151890 0.339457 1.552798 1.126014 0.361543 1.555885 2.249492 -0.041717 0.188039 2.249496 -0.041717 0.188038 -0.000000 -0.000000 0.000000 2.249563 -0.041717 0.188037 2.249492 -0.041716 0.188038 -0.000000 0.000000 0.000000 -0.000000 -0.000000 0.000000 1.049449 -17.442068 -12.319431 3.916261 -19.989247 -69.765232 0.000005 -1.459360 0.000011 -33.230414 -1.364828 -6.186632 -0.663003 2.160316 4.832518 11.853553 25.421623 17.058319 -0.000001 -0.000003 0.000000 0.019866 -0.969583 -7.593547 0.267872 1.752894 -17.375699 0.000001 0.000000 0.000001 -0.076307 2.665773 -15.696815 0.268783 1.755798 -17.405542 -0.000000 -0.000001 -0.000000 0.136911 3.641763 -21.133522 0.386623 2.094786 -20.911901 -0.000000 -0.000001 0.000002 0.927726 5.555921 -27.128039 0.268791 1.755833 -17.405873 -0.000000 -0.000003 0.000000 0.000001 0.000000 -0.000000 0.000001 0.000000 -0.000000 0.000001 0.000000 0.000000 -0.000003 0.000000 0.000001 -0.000002 0.000000 0.000000 -0.000003 0.000000 0.000001 -0.000004 -0.000000 0.000000 1.203181 15.343658 14.705971 13.158859 27.555126 58.785157 0.000016 6.693744 -0.000004 -20.179089 -0.514092 6.782782 -1.665257 -0.174478 -4.219015 12.710926 -29.825360 -16.130972 -0.000001 -0.000006 -0.000003 0.038558 1.262300 6.823724 0.213719 -1.396027 17.407033 -0.000001 0.000001 -0.000001 -0.136227 -2.205097 14.998884 0.214448 -1.398342 17.436889 -0.000001 0.000000 -0.000000 0.030611 -3.075751 20.451017 0.308449 -1.668278 20.948527 -0.000001 0.000001 -0.000001 0.748876 -4.885254 26.473759 0.214454 -1.398371 17.437251 0.000001 0.000005 -0.000000 0.000000 0.000000 -0.000000 0.000000 -0.000000 0.000001 0.000000 0.000000 -0.000000 0.000002 0.000000 -0.000001 0.000002 0.000000 -0.000001 0.000002 0.000000 -0.000001 0.000002 -0.000000 -0.000001 -0.000000 0.000000 -0.000000 -0.000000 0.000000 -0.000000 -0.000000 0.000000 -0.000000 -0.000000 0.000000 -0.000000 -0.000000 0.000000 -0.000000 -0.000000 0.000000 -0.000000 -0.000000 0.000000 -0.000000 0.000000 0.000000 0.000000 -0.000000 0.000001 0.000000 
-0.040042 95.259789 4.401307 -3.755879 -5.240329 -3.185959 0.000000 -0.000001 -0.000000 -14.961690 13.547674 12.622758 20.371587 1.724473 4.636947 -2.545023 1.109636 -9.570697 0.000000 0.000000 -0.000000 -0.000001 0.000000 -0.000000 4.418037 -10.064086 2.938062 4.816946 -9.709929 -3.274224 -4.795280 -1.879387 4.076551 0.000000 0.000000 -0.000000 0.000000 -0.000000 0.000000 3.322279 1.519491 2.148512 1.166328 0.334914 1.559239 1.140482 0.356993 1.562264 2.256148 -0.042868 0.189519 2.256151 -0.042869 0.189519 -0.000000 -0.000000 -0.000000 2.256231 -0.042866 0.189519 2.256084 -0.042872 0.189519 -0.000000 0.000000 -0.000000 -0.000000 -0.000000 -0.000000 1.054959 -17.477476 -12.288981 3.915221 -19.981263 -69.757200 -0.000001 -1.444698 -0.000010 -33.159353 -1.093071 -6.208804 -0.663016 2.160292 4.832504 11.853533 25.421587 17.058319 0.000001 -0.000004 -0.000003 0.019868 -0.969599 -7.593443 0.267867 1.752892 -17.375730 0.000000 -0.000001 0.000001 -0.076308 2.665779 -15.696704 0.268785 1.755800 -17.405482 0.000001 -0.000001 -0.000001 0.136913 3.641770 -21.133425 0.386620 2.094778 -20.911831 -0.000001 -0.000000 -0.000004 0.927747 5.555980 -27.127992 0.268790 1.755824 -17.405754 -0.000000 -0.000003 0.000002 -0.000002 0.000000 -0.000000 -0.000002 0.000000 -0.000000 -0.000002 0.000000 -0.000000 -0.000000 -0.000001 0.000000 -0.000000 -0.000001 0.000000 -0.000000 -0.000001 0.000000 -0.000002 -0.000001 0.000000 1.205525 15.352725 14.693682 13.153166 27.576643 58.804637 -0.000001 6.696221 -0.000005 -20.142976 -0.516079 6.788570 -1.670230 -0.160335 -4.237399 12.693986 -29.794187 -16.134565 0.000001 -0.000002 0.000003 0.038187 1.285064 6.771080 0.215715 -1.402378 17.488797 0.000002 -0.000001 -0.000000 -0.140696 -2.182664 14.936874 0.214551 -1.398662 17.441031 -0.000002 0.000000 0.000002 0.027269 -3.064085 20.391029 0.308389 -1.668119 20.946481 0.000003 -0.000001 0.000001 0.748114 -4.888988 26.427431 0.214499 -1.398515 17.439052 0.000000 0.000003 0.000002 -0.000001 -0.000000 0.000000 -0.000004 0.000000 0.000001 -0.000001 -0.000000 0.000000 -0.000000 0.000000 0.000001 -0.000000 0.000000 0.000001 -0.000000 0.000000 0.000001 -0.000000 -0.000000 0.000001 0.000000 0.000000 0.000000 0.000000 0.000000 0.000000 0.000000 0.000000 0.000000 0.000000 0.000000 0.000000 0.000000 0.000000 0.000000 0.000000 0.000000 0.000000 0.000000 0.000000 0.000000 -0.000000 0.000000 0.000000 0.000000 -0.000001 -0.000000 
-0.152083 95.260635 4.412097 -3.769759 -5.245602 -3.192901 0.000000 0.000000 -0.000000 -14.921680 13.595317 12.731037 20.286222 1.659346 4.642041 -2.491639 1.106519 -9.659822 -0.000000 -0.000000 -0.000000 -0.000001 0.000001 0.000001 4.503379 -10.017877 3.059494 4.744493 -9.741790 -3.291269 -4.813550 -1.886621 3.993602 -0.000000 -0.000000 -0.000000 -0.000000 0.000001 -0.000000 3.327468 1.515629 2.148668 1.172789 0.328807 1.564457 1.146987 0.350925 1.567398 2.271409 -0.044935 0.188085 2.271430 -0.044937 0.188082 0.000000 0.000000 -0.000000 2.271509 -0.044933 0.188082 2.271436 -0.044931 0.188082 0.000001 -0.000000 -0.000000 0.000000 0.000000 -0.000000 1.060542 -17.516560 -12.258634 3.956890 -19.965188 -69.749373 -0.000005 -1.446824 0.000014 -32.965973 -1.193461 -5.991351 -0.663068 2.160200 4.832507 11.853513 25.421542 17.058353 0.000004 -0.000002 -0.000003 0.019873 -0.969666 -7.593101 0.267870 1.752887 -17.375699 -0.000000 0.000000 -0.000001 -0.076296 2.665779 -15.696357 0.268783 1.755799 -17.405503 0.000001 0.000000 0.000002 0.136917 3.641772 -21.133104 0.386620 2.094762 -20.911662 0.000001 -0.000000 -0.000003 0.927821 5.556151 -27.127862 0.268781 1.755784 -17.405475 -0.000001 -0.000002 0.000001 -0.000002 0.000001 0.000001 -0.000002 0.000001 0.000001 -0.000002 0.000001 0.000002 -0.000001 0.000001 0.000001 -0.000001 0.000001 0.000000 -0.000001 0.000001 0.000001 -0.000003 0.000001 0.000000 1.211061 15.355143 14.666014 13.160183 27.613470 58.837367 -0.000004 6.700502 -0.000000 -20.139038 -0.532014 6.798760 -1.674872 -0.148710 -4.246365 12.682851 -29.773727 -16.136933 0.000002 -0.000004 -0.000001 0.034315 1.316411 6.740653 0.215259 -1.400918 17.470043 -0.000001 0.000000 0.000001 -0.139728 -2.180056 14.868316 0.214578 -1.398750 17.442042 0.000001 0.000000 0.000001 0.022185 -3.048739 20.354637 0.308338 -1.667978 20.944536 -0.000001 0.000001 0.000001 0.746671 -4.887830 26.389242 0.213441 -1.395143 17.395597 -0.000000 0.000002 -0.000001 -0.000001 0.000000 0.000000 -0.000001 0.000000 -0.000001 -0.000001 0.000000 0.000001 -0.000000 0.000001 0.000001 -0.000000 0.000001 0.000001 -0.000000 0.000001 0.000001 0.000000 0.000001 0.000001 -0.000000 -0.000000 -0.000000 -0.000000 -0.000000 -0.000000 -0.000000 -0.000000 -0.000000 -0.000000 -0.000000 -0.000000 -0.000000 -0.000000 -0.000000 -0.000000 -0.000000 -0.000000 -0.000000 -0.000000 -0.000000 -0.000000 -0.000000 -0.000000 0.000000 0.000000 -0.000000 
-0.279036 95.260895 4.428918 -3.794958 -5.246878 -3.189415 -0.000000 0.000000 0.000000 -14.850624 13.657105 12.843023 20.168821 1.579019 4.640220 -2.424639 1.103221 -9.760303 0.000000 0.000000 0.000000 -0.000000 0.000000 -0.000000 4.579310 -9.959615 3.179785 4.727089 -9.802799 -3.313527 -4.871530 -1.883079 3.911005 0.000000 0.000000 -0.000000 -0.000001 -0.000002 0.000000 3.326668 1.510479 2.147329 1.169916 0.320564 1.568389 1.144170 0.342742 1.571207 2.293896 -0.046357 0.181267 2.293932 -0.046358 0.181267 -0.000000 -0.000000 -0.000000 2.293896 -0.046367 0.181270 2.293893 -0.046349 0.181266 0.000000 0.000000 -0.000000 -0.000000 -0.000000 0.000000 1.063570 -17.542108 -12.242747 4.032222 -19.928576 -69.736559 0.000007 -1.462984 -0.000040 -32.709253 -1.701665 -5.543691 -0.663157 2.160054 4.832485 11.853458 25.421430 17.058334 0.000002 -0.000001 -0.000004 0.019874 -0.969781 -7.592645 0.267870 1.752881 -17.375629 0.000001 0.000000 0.000001 -0.076280 2.665787 -15.695828 0.268783 1.755797 -17.405462 -0.000000 0.000000 0.000003 0.136928 3.641780 -21.132595 0.386606 2.094739 -20.911382 -0.000000 -0.000002 -0.000001 0.927947 5.556414 -27.127705 0.268766 1.755741 -17.404958 0.000000 -0.000003 0.000002 0.000001 0.000000 -0.000001 0.000001 0.000000 -0.000001 0.000000 0.000000 -0.000001 -0.000002 -0.000001 -0.000001 -0.000002 -0.000001 -0.000002 -0.000002 -0.000001 -0.000001 -0.000003 -0.000001 -0.000002 1.216653 15.337900 14.639384 13.184240 27.657838 58.862072 -0.000004 6.709801 -0.000005 -20.180293 -0.549433 6.802850 -1.674191 -0.149594 -4.249282 12.683412 -29.774792 -16.136856 -0.000002 0.000000 0.000003 0.031654 1.328186 6.745609 0.214334 -1.397984 17.432197 -0.000002 -0.000000 -0.000002 -0.137283 -2.186670 14.838808 0.214628 -1.398882 17.443883 0.000004 -0.000001 0.000002 0.017384 -3.035410 20.346746 0.308233 -1.667720 20.941170 0.000001 0.000001 0.000001 0.745857 -4.885874 26.374772 0.211934 -1.390312 17.333567 0.000002 0.000003 0.000000 0.000003 0.000000 -0.000000 0.000003 0.000000 -0.000000 0.000003 0.000000 -0.000000 0.000000 -0.000001 0.000001 0.000000 -0.000001 0.000001 0.000000 -0.000001 0.000001 0.000000 -0.000001 0.000001 -0.000000 0.000000 0.000000 -0.000000 0.000000 0.000000 -0.000000 0.000000 0.000000 -0.000000 0.000000 0.000000 -0.000000 0.000000 0.000000 -0.000000 0.000000 0.000000 -0.000000 0.000000 0.000000 0.000000 0.000001 -0.000000 -0.000000 0.000000 0.000000 
